<?xml version="1.0" standalone="no"?>
<!DOCTYPE svg PUBLIC "-//W3C//DTD SVG 20010904//EN"
 "http://www.w3.org/TR/2001/REC-SVG-20010904/DTD/svg10.dtd">
<svg version="1.0" xmlns="http://www.w3.org/2000/svg"
 width="216.000000pt" height="260.000000pt" viewBox="0 0 216.000000 260.000000"
 preserveAspectRatio="xMidYMid meet">

<g transform="translate(0.000000,260.000000) scale(0.100000,-0.100000)"
fill="#000000" stroke="none">
<path d="M5 1300 c0 -718 1 -1011 2 -652 2 358 2 946 0 1305 -1 358 -2 65 -2
-653z"/>
<path d="M1183 1823 c16 -4 17 -30 17 -373 l0 -369 -22 -4 c-13 -2 22 -4 77
-4 55 -1 92 1 83 4 -17 4 -18 30 -18 364 l0 359 35 0 c162 0 290 -240 256
-482 -34 -242 -159 -361 -365 -345 -147 11 -239 65 -444 260 -197 188 -280
227 -422 197 -81 -17 -83 -27 -4 -22 95 6 156 -27 324 -179 204 -184 300 -242
453 -273 180 -37 349 -5 452 86 183 160 189 478 14 663 -61 65 -129 100 -219
115 -62 9 -254 13 -217 3z"/>
<path d="M638 1800 c22 -9 22 -11 23 -217 l0 -208 57 -45 c31 -25 60 -46 64
-48 4 -2 8 28 8 67 l0 71 83 0 c96 0 134 -17 160 -73 21 -43 22 -128 2 -167
-8 -15 -29 -39 -46 -52 l-31 -25 27 -17 c22 -15 32 -15 62 -5 55 18 108 78
122 136 18 74 2 126 -59 185 l-48 46 25 24 c108 99 65 289 -75 328 -47 13
-407 13 -374 0z m337 -52 c77 -60 72 -227 -8 -278 -12 -7 -57 -16 -99 -18
l-78 -5 0 162 0 161 79 0 c65 0 83 -4 106 -22z"/>
<path d="M823 873 c164 -2 430 -2 590 0 161 1 27 2 -298 2 -324 0 -456 -1
-292 -2z"/>
<path d="M820 775 c0 -38 3 -45 19 -45 27 0 31 10 24 53 -4 27 -11 37 -24 37
-16 0 -19 -8 -19 -45z m30 20 c0 -8 -4 -15 -10 -15 -5 0 -10 7 -10 15 0 8 5
15 10 15 6 0 10 -7 10 -15z m2 -40 c0 -5 -5 -11 -11 -13 -6 -2 -11 4 -11 13 0
9 5 15 11 13 6 -2 11 -8 11 -13z"/>
<path d="M1183 775 c0 -27 2 -38 4 -22 2 15 2 37 0 50 -2 12 -4 0 -4 -28z"/>
<path d="M1280 775 c0 -40 2 -45 23 -45 30 0 47 18 47 51 0 27 -15 39 -51 39
-16 0 -19 -7 -19 -45z m53 13 c8 -12 7 -21 -2 -32 -23 -28 -41 -19 -41 20 0
28 4 35 16 32 9 -2 22 -10 27 -20z"/>
<path d="M911 758 c1 -22 3 -26 6 -13 3 11 10 26 15 33 8 9 6 12 -6 12 -12 0
-16 -9 -15 -32z"/>
<path d="M984 782 c18 -8 18 -9 3 -15 -24 -9 -21 -37 4 -37 16 0 20 5 17 27
-2 19 -9 29 -23 30 -19 3 -19 3 -1 -5z m16 -32 c0 -5 -4 -10 -10 -10 -5 0 -10
5 -10 10 0 6 5 10 10 10 6 0 10 -4 10 -10z"/>
<path d="M1054 779 c-4 -7 1 -16 12 -22 17 -10 17 -11 -1 -18 -16 -6 -17 -8
-3 -8 25 -1 34 20 14 35 -16 12 -16 13 1 17 15 4 16 5 1 6 -9 0 -20 -4 -24
-10z"/>
<path d="M1132 760 c0 -19 2 -27 5 -17 2 9 2 25 0 35 -3 9 -5 1 -5 -18z"/>
<path d="M1394 776 c-9 -23 3 -46 23 -46 15 0 15 2 -3 15 -18 14 -18 14 4 15
14 0 22 5 20 13 -7 18 -37 21 -44 3z"/>
<path d="M1481 774 c9 -11 8 -18 -1 -29 -9 -10 -9 -15 -1 -15 6 0 11 5 11 11
0 8 4 8 13 0 11 -8 14 -5 14 17 0 21 -5 27 -24 28 -19 2 -22 -1 -12 -12z"/>
</g>
</svg>
